HIERARCHY
ROOT SimulationBone
{
	OFFSET 0.000000 0.000000 0.000000
	CHANNELS 6 Xposition Yposition Zposition Zrotation Yrotation Xrotation 
	JOINT Hips
	{
		OFFSET 0.000000 0.000000 0.000000
		CHANNELS 6 Xposition Yposition Zposition Zrotation Yrotation Xrotation 
		JOINT LeftUpLeg
		{
			OFFSET 0.103457 1.857824 10.548509
			CHANNELS 3 Zrotation Yrotation Xrotation
			JOINT LeftLeg
			{
				OFFSET 43.500000 -0.000023 0.000006
				CHANNELS 3 Zrotation Yrotation Xrotation
				JOINT LeftFoot
				{
					OFFSET 42.372192 0.000011 -0.000009
					CHANNELS 3 Zrotation Yrotation Xrotation
					JOINT LeftToe
					{
						OFFSET 17.300005 0.000002 -0.000010
						CHANNELS 3 Zrotation Yrotation Xrotation
						End Site
						{
							OFFSET 0.000000 0.000000 0.000000
						}
					}
				}
			}
		}
		JOINT RightUpLeg
		{
			OFFSET 0.103458 1.857836 -10.548506
			CHANNELS 3 Zrotation Yrotation Xrotation
			JOINT RightLeg
			{
				OFFSET 43.500038 -0.000023 0.000017
				CHANNELS 3 Zrotation Yrotation Xrotation
				JOINT RightFoot
				{
					OFFSET 42.372269 -0.000019 0.000007
					CHANNELS 3 Zrotation Yrotation Xrotation
					JOINT RightToe
					{
						OFFSET 17.299999 -0.000003 0.000008
						CHANNELS 3 Zrotation Yrotation Xrotation
						End Site
						{
							OFFSET 0.000000 0.000000 0.000000
						}
					}
				}
			}
		}
		JOINT Spine
		{
			OFFSET 6.901969 -2.603729 0.000003
			CHANNELS 3 Zrotation Yrotation Xrotation
			JOINT Spine1
			{
				OFFSET 12.588093 -0.000007 0.000001
				CHANNELS 3 Zrotation Yrotation Xrotation
				JOINT Spine2
				{
					OFFSET 12.343206 0.000014 -0.000007
					CHANNELS 3 Zrotation Yrotation Xrotation
					JOINT Neck
					{
						OFFSET 25.832899 -0.000010 0.000002
						CHANNELS 3 Zrotation Yrotation Xrotation
						JOINT Head
						{
							OFFSET 11.766599 0.000010 -0.000001
							CHANNELS 3 Zrotation Yrotation Xrotation
							End Site
							{
								OFFSET 0.000000 0.000000 0.000000
							}
						}
					}
					JOINT LeftShoulder
					{
						OFFSET 19.745895 -1.480371 6.000111
						CHANNELS 3 Zrotation Yrotation Xrotation
						JOINT LeftArm
						{
							OFFSET 11.284124 -0.000010 -0.000007
							CHANNELS 3 Zrotation Yrotation Xrotation
							JOINT LeftForeArm
							{
								OFFSET 33.000061 0.000006 0.000028
								CHANNELS 3 Zrotation Yrotation Xrotation
								JOINT LeftHand
								{
									OFFSET 25.200001 0.000019 0.000008
									CHANNELS 3 Zrotation Yrotation Xrotation
									End Site
									{
										OFFSET 0.000000 0.000000 0.000000
									}
								}
							}
						}
					}
					JOINT RightShoulder
					{
						OFFSET 19.746101 -1.480375 -6.000078
						CHANNELS 3 Zrotation Yrotation Xrotation
						JOINT RightArm
						{
							OFFSET 11.284128 -0.000010 -0.000011
							CHANNELS 3 Zrotation Yrotation Xrotation
							JOINT RightForeArm
							{
								OFFSET 33.000095 0.000022 0.000002
								CHANNELS 3 Zrotation Yrotation Xrotation
								JOINT RightHand
								{
									OFFSET 25.199768 0.000129 0.000422
									CHANNELS 3 Zrotation Yrotation Xrotation
									End Site
									{
										OFFSET 0.000000 0.000000 0.000000
									}
								}
							}
						}
					}
				}
			}
		}
	}
}
MOTION
Frames: 6
Frame Time: 0.033333
-347.156225 0.000000 -371.065456 0.000000 -81.707138 0.000000 -5.401228 88.130409 1.203638 81.844045 1.555205 -172.680785 -176.791155 3.330510 -179.275786 -25.558505 0.663630 6.185328 95.320583 -2.888137 10.572107 21.454557 0.003102 0.000017 141.884558 5.292604 -171.972156 -18.930518 -1.736793 1.144715 70.345580 3.442502 12.621874 21.454551 -0.003090 -0.000001 7.068912 0.303971 -1.398684 4.117056 0.657027 -2.785818 3.799347 0.640063 -2.789737 -5.173372 -10.365768 -1.205273 -30.719121 3.782764 -6.050725 167.547518 -75.873833 11.313950 12.518888 56.838953 15.034764 -52.363809 -11.837210 1.646975 1.687458 -17.614151 -13.616641 -146.577499 78.899538 35.509979 22.034942 -60.005978 -63.529707 -34.538327 18.254819 -1.534698 12.686303 -4.859204 -12.117459 
-347.110519 0.000000 -367.493415 0.000000 -79.519627 0.000000 -5.057570 87.746132 1.044031 82.375401 1.662698 -174.320404 -176.220028 1.675394 178.385676 -29.610762 1.191188 8.355763 92.550054 -4.000678 11.399462 21.454560 0.003108 0.000016 141.547611 4.214988 -171.357043 -25.050803 -1.923704 -0.517586 69.266492 1.948886 4.493679 21.454555 -0.003093 0.000000 7.066866 0.307473 -1.368535 4.113079 0.662902 -2.725426 3.795354 0.646300 -2.729386 -4.486642 -10.489325 -0.764532 -30.898816 3.986234 -5.677786 167.654083 -75.518765 11.219058 13.490551 55.925422 17.223722 -50.620632 -12.053852 1.604179 1.961207 -18.439276 -13.723759 -146.258638 79.215749 35.823024 16.128665 -59.742743 -58.195889 -35.734737 19.525646 -1.644751 12.473389 -2.677904 -14.956064 
-346.933918 0.000000 -363.844959 0.000000 -77.450484 0.000000 -4.674164 87.956581 1.116351 83.026898 2.686759 -175.777065 -177.758624 -1.376005 174.709450 -36.687005 2.353769 11.408993 85.473158 -5.526185 11.193714 21.454563 0.003102 0.000017 142.600280 2.352296 -174.158458 -29.206575 -1.118005 2.038188 70.677370 -0.432871 3.103017 21.454550 -0.003104 -0.000001 7.103567 0.545672 -1.224049 4.182465 1.134821 -2.427897 3.864623 1.120000 -2.434706 -4.632170 -11.229704 -0.140822 -30.370006 3.955036 -5.201203 167.753790 -75.159238 11.131217 14.246612 56.355843 18.057951 -48.733803 -12.553530 1.577269 1.503391 -18.505785 -12.599213 -145.092329 78.631118 37.030031 9.488132 -58.996244 -51.191243 -37.149365 20.558232 -1.746336 11.831621 -0.169386 -15.762840 
-346.612807 0.000000 -360.126512 0.000000 -75.538116 0.000000 -4.168680 87.846382 1.183206 83.991652 3.254885 -176.815346 178.399500 -5.018011 171.822629 -47.586666 3.406823 14.430446 73.830766 -9.165714 3.547402 21.454560 0.003102 0.000023 143.919531 1.316104 -178.270751 -34.320324 1.199491 4.658905 75.222342 -2.662074 2.393998 21.454550 -0.003085 0.000000 7.212280 0.755410 -1.156742 4.396642 1.553857 -2.284415 4.078682 1.539903 -2.293754 -4.209499 -12.356777 0.739960 -30.204391 3.531380 -4.325123 166.233199 -75.009329 12.691554 16.858377 58.359103 18.078408 -47.690464 -12.481338 1.540028 1.433812 -19.846552 -11.914947 -146.481767 79.425599 35.588817 4.191008 -58.477457 -44.648636 -38.616356 21.204770 -1.826037 10.805458 1.670755 -14.902266 
-346.135404 0.000000 -356.354152 0.000000 -73.803137 0.000000 -3.907914 87.923424 1.228056 84.658393 3.488391 -176.942485 172.597009 -7.428498 171.719780 -59.575574 4.857620 14.686010 62.830835 -11.542584 -1.675719 21.454550 0.003108 0.000015 146.161076 1.492906 -177.429982 -37.351525 2.031890 4.935593 79.587755 -3.049662 1.916342 21.454557 -0.003077 0.000002 7.235997 0.887216 -1.085268 4.442784 1.815098 -2.136254 4.124751 1.802031 -2.147172 -3.110013 -13.593735 1.264753 -30.107621 3.527686 -3.967203 164.749723 -75.354629 14.192618 19.367871 60.620798 19.938255 -48.061101 -12.397944 1.545939 2.657308 -21.605326 -14.570832 -147.189388 80.949981 34.818132 1.344340 -58.110867 -39.951535 -42.065342 22.170943 -1.984031 10.268388 1.484213 -15.234039 
-345.507762 0.000000 -352.531774 0.000000 -72.209335 0.000000 -4.059364 88.333504 1.348531 85.091205 3.926778 -176.077389 166.235125 -8.492399 174.625261 -69.832981 5.367264 10.881590 58.745118 -12.449090 -9.089875 21.454558 0.003108 0.000024 149.465071 2.014204 -171.751240 -37.893466 0.768513 3.333761 82.873465 -2.061242 1.318239 21.454551 -0.003090 0.000001 7.313388 0.994777 -0.814597 4.600581 2.020944 -1.589591 4.282413 2.011162 -1.601776 -3.534384 -14.035177 0.951984 -28.833036 3.539283 -4.402891 164.287619 -75.575538 14.654796 18.874575 61.670263 21.378448 -50.012906 -12.484408 1.613296 2.845481 -21.656807 -15.992446 -143.907004 80.913706 38.146395 -1.027583 -56.885282 -36.681350 -47.037279 23.101457 -2.196811 9.737945 2.015030 -16.306599 
